<?xml version="1.0" encoding="UTF-8" standalone="no"?><!DOCTYPE svg PUBLIC "-//W3C//DTD SVG 1.1//EN" "http://www.w3.org/Graphics/SVG/1.1/DTD/svg11.dtd"><svg width="100%" height="100%" viewBox="0 0 4267 4267" version="1.1" xmlns="http://www.w3.org/2000/svg" xmlns:xlink="http://www.w3.org/1999/xlink" xml:space="preserve" xmlns:serif="http://www.serif.com/" style="fill-rule:evenodd;clip-rule:evenodd;stroke-linecap:round;stroke-linejoin:round;stroke-miterlimit:1.5;"><rect x="340.615" y="1063.54" width="3585.44" height="411.52" style="fill:none;stroke:#000;stroke-width:31.25px;"/><rect x="571.455" y="1805.63" width="1136.2" height="1073.73" style="fill:none;stroke:#000;stroke-width:31.25px;"/><path d="M573.302,2879.36c-2.404,-4.486 -3.051,-3.742 1.706,-9.945c40.134,-52.337 1130.96,-1065.54 1132.64,-1063.79" style="fill:none;stroke:#000;stroke-width:20.83px;"/><path d="M571.455,1805.65c12.905,-5.127 1092.08,1051.78 1136.19,1073.71" style="fill:none;stroke:#000;stroke-width:20.83px;"/><path d="M1854.86,1829.31l1242.04,0" style="fill:none;stroke:#000;stroke-width:31.25px;"/><path d="M1854.86,2730.24l1488.64,0" style="fill:none;stroke:#000;stroke-width:20.83px;"/><path d="M1854.86,2279.69l1840.35,-0" style="fill:none;stroke:#000;stroke-width:20.83px;"/><path d="M1854.86,2054.5l1412.33,0" style="fill:none;stroke:#000;stroke-width:20.83px;"/><path d="M1854.86,2504.88l1840.35,0" style="fill:none;stroke:#000;stroke-width:20.83px;"/><path d="M1854.86,1942.02l1488.64,0" style="fill:none;stroke:#000;stroke-width:20.83px;"/><path d="M1854.86,2842.95l1687.23,0" style="fill:none;stroke:#000;stroke-width:20.83px;"/><path d="M1854.86,2392.39l1273.2,0" style="fill:none;stroke:#000;stroke-width:20.83px;"/><path d="M1854.86,2167.21l1687.23,-0" style="fill:none;stroke:#000;stroke-width:20.83px;"/><path d="M1854.86,2617.58l1603.27,0" style="fill:none;stroke:#000;stroke-width:20.83px;"/><path d="M973.136,3203.12l2952.92,0l-0,-2139.58l-3585.44,0l0,1278.95" style="fill:none;stroke:#000;stroke-width:41.67px;"/></svg>