<?xml version="1.0" encoding="UTF-8" standalone="no"?><!DOCTYPE svg PUBLIC "-//W3C//DTD SVG 1.1//EN" "http://www.w3.org/Graphics/SVG/1.1/DTD/svg11.dtd"><svg width="100%" height="100%" viewBox="0 0 4267 4267" version="1.1" xmlns="http://www.w3.org/2000/svg" xmlns:xlink="http://www.w3.org/1999/xlink" xml:space="preserve" xmlns:serif="http://www.serif.com/" style="fill-rule:evenodd;clip-rule:evenodd;stroke-linecap:round;stroke-linejoin:round;stroke-miterlimit:1.5;"><rect x="340.615" y="1809.69" width="3585.44" height="411.52" style="fill:none;stroke:#000;stroke-width:31.25px;"/><path d="M973.136,3949.27l2952.92,0l-0,-2139.58l-3585.44,-0l0,1278.95" style="fill:none;stroke:#000;stroke-width:41.67px;"/><rect x="340.615" y="1809.69" width="3585.44" height="411.52" style="fill:none;stroke:#000;stroke-width:31.25px;"/><path d="M3029.69,1380.03l0,390.902" style="fill:none;stroke:#000;stroke-width:31.25px;"/><path d="M1214.18,1770.93l0.42,-390.902" style="fill:none;stroke:#000;stroke-width:31.25px;"/><rect x="571.455" y="2551.78" width="1136.2" height="1073.73" style="fill:none;stroke:#000;stroke-width:31.25px;"/><rect x="571.455" y="2551.78" width="1136.2" height="1073.73" style="fill:none;stroke:#000;stroke-width:31.25px;"/><path d="M573.302,3625.51c-2.404,-4.487 -3.051,-3.743 1.706,-9.946c40.134,-52.336 1130.96,-1065.54 1132.64,-1063.79" style="fill:none;stroke:#000;stroke-width:20.83px;"/><path d="M573.302,3625.51c-2.404,-4.487 -3.051,-3.743 1.706,-9.946c40.134,-52.336 1130.96,-1065.54 1132.64,-1063.79" style="fill:none;stroke:#000;stroke-width:20.83px;"/><path d="M571.455,2551.8c12.905,-5.128 1092.08,1051.78 1136.19,1073.71" style="fill:none;stroke:#000;stroke-width:20.83px;"/><path d="M571.455,2551.8c12.905,-5.128 1092.08,1051.78 1136.19,1073.71" style="fill:none;stroke:#000;stroke-width:20.83px;"/><path d="M1854.86,2575.46l1242.04,-0" style="fill:none;stroke:#000;stroke-width:31.25px;"/><path d="M1854.86,2575.46l1242.04,-0" style="fill:none;stroke:#000;stroke-width:31.25px;"/><path d="M1824.92,1164.26c-0,98.624 -272.793,178.694 -608.796,178.694c-336.003,0 -608.796,-80.07 -608.796,-178.694" style="fill:none;stroke:#000;stroke-width:31.25px;"/><path d="M1824.92,910.693c-0,98.624 -272.793,178.695 -608.796,178.695c-336.003,-0 -608.796,-80.071 -608.796,-178.695" style="fill:none;stroke:#000;stroke-width:31.25px;"/><path d="M1824.92,657.124c-0,98.625 -272.793,178.695 -608.796,178.695c-336.003,-0 -608.796,-80.07 -608.796,-178.695" style="fill:none;stroke:#000;stroke-width:31.25px;"/><path d="M607.332,1014.51l0,149.749" style="fill:none;stroke:#000;stroke-width:31.25px;"/><path d="M607.332,760.945l0,149.748" style="fill:none;stroke:#000;stroke-width:31.25px;"/><path d="M607.332,507.376l0,149.748" style="fill:none;stroke:#000;stroke-width:31.25px;"/><path d="M1797.79,965.8c19.597,17.529 27.138,29.271 27.138,48.713c-0,98.624 -272.793,178.695 -608.796,178.695c-336.003,-0 -608.796,-80.071 -608.796,-178.695c0,-18.436 8.982,-32.227 26.679,-48.965" style="fill:none;stroke:#000;stroke-width:31.25px;"/><path d="M1801.77,711.496c17.379,16.601 23.154,31.184 23.154,49.449c-0,98.624 -272.793,178.694 -608.796,178.694c-336.003,-0 -608.796,-80.07 -608.796,-178.694c0,-18.143 7.398,-36.401 24.555,-52.905" style="fill:none;stroke:#000;stroke-width:31.25px;"/><ellipse cx="1216.13" cy="507.376" rx="608.796" ry="178.694" style="fill:none;stroke:#000;stroke-width:31.25px;"/><path d="M1824.92,1164.26l-0,-149.749" style="fill:none;stroke:#000;stroke-width:31.25px;"/><path d="M1824.92,910.693l-0,-149.748" style="fill:none;stroke:#000;stroke-width:31.25px;"/><path d="M1824.92,657.124l-0,-149.748" style="fill:none;stroke:#000;stroke-width:31.25px;"/><path d="M687.782,671.27c95.799,46.447 209.194,66.567 320.306,77.7" style="fill:none;stroke:#000;stroke-width:31.25px;"/><path d="M687.782,929.71c95.799,46.446 209.194,66.566 320.306,77.7" style="fill:none;stroke:#000;stroke-width:31.25px;"/><path d="M687.782,1188.15c95.799,46.447 209.194,66.567 320.306,77.7" style="fill:none;stroke:#000;stroke-width:31.25px;"/><path d="M1094.41,755.405c50.21,3.206 93.05,4.442 131.868,4.604" style="fill:none;stroke:#000;stroke-width:31.25px;"/><path d="M1094.41,1013.85c50.21,3.206 93.05,4.442 131.868,4.603" style="fill:none;stroke:#000;stroke-width:31.25px;"/><path d="M1094.41,1272.28c50.21,3.206 93.05,4.442 131.868,4.604" style="fill:none;stroke:#000;stroke-width:31.25px;"/><path d="M1328.88,754.958c46.89,-2.81 92.064,-6.68 134.929,-11.975" style="fill:none;stroke:#000;stroke-width:31.25px;"/><path d="M1328.88,1013.4c46.89,-2.811 92.064,-6.681 134.929,-11.976" style="fill:none;stroke:#000;stroke-width:31.25px;"/><path d="M1328.88,1271.84c46.89,-2.81 92.064,-6.68 134.929,-11.975" style="fill:none;stroke:#000;stroke-width:31.25px;"/><path d="M1854.86,3476.39l1488.64,-0" style="fill:none;stroke:#000;stroke-width:20.83px;"/><path d="M1854.86,3476.39l1488.64,-0" style="fill:none;stroke:#000;stroke-width:20.83px;"/><path d="M1854.86,3025.84l1840.35,0" style="fill:none;stroke:#000;stroke-width:20.83px;"/><path d="M1854.86,3025.84l1840.35,0" style="fill:none;stroke:#000;stroke-width:20.83px;"/><path d="M1854.86,2800.65l1412.33,-0" style="fill:none;stroke:#000;stroke-width:20.83px;"/><path d="M1854.86,2800.65l1412.33,-0" style="fill:none;stroke:#000;stroke-width:20.83px;"/><path d="M1854.86,3251.02l1840.35,0" style="fill:none;stroke:#000;stroke-width:20.83px;"/><path d="M1854.86,3251.02l1840.35,0" style="fill:none;stroke:#000;stroke-width:20.83px;"/><path d="M1854.86,2688.17l1488.64,-0" style="fill:none;stroke:#000;stroke-width:20.83px;"/><path d="M1854.86,2688.17l1488.64,-0" style="fill:none;stroke:#000;stroke-width:20.83px;"/><path d="M1854.86,3589.1l1687.23,-0" style="fill:none;stroke:#000;stroke-width:20.83px;"/><path d="M1854.86,3589.1l1687.23,-0" style="fill:none;stroke:#000;stroke-width:20.83px;"/><path d="M1854.86,3138.54l1273.2,0" style="fill:none;stroke:#000;stroke-width:20.83px;"/><path d="M1854.86,3138.54l1273.2,0" style="fill:none;stroke:#000;stroke-width:20.83px;"/><path d="M1854.86,2913.36l1687.23,-0" style="fill:none;stroke:#000;stroke-width:20.83px;"/><path d="M1854.86,2913.36l1687.23,-0" style="fill:none;stroke:#000;stroke-width:20.83px;"/><path d="M1854.86,3363.73l1603.27,0" style="fill:none;stroke:#000;stroke-width:20.83px;"/><path d="M1854.86,3363.73l1603.27,0" style="fill:none;stroke:#000;stroke-width:20.83px;"/><path d="M2449.59,1341.78l1476.46,0l-0,-1022.84l-1792.72,-0l0,611.413" style="fill:none;stroke:#000;stroke-width:41.67px;"/><rect x="2133.33" y="318.88" width="1792.72" height="196.706" style="fill:none;stroke:#000;stroke-width:31.25px;"/><rect x="3237.37" y="663.497" width="554.311" height="513.243" style="fill:none;stroke:#000;stroke-width:31.25px;"/><path d="M3790.78,1176.74c1.173,-2.145 1.489,-1.789 -0.832,-4.754c-19.58,-25.017 -551.756,-509.328 -552.577,-508.488" style="fill:none;stroke:#000;stroke-width:20.83px;"/><path d="M3791.68,663.506c-6.296,-2.451 -532.79,502.75 -554.31,513.234" style="fill:none;stroke:#000;stroke-width:20.83px;"/><path d="M3165.55,674.818l-605.947,0" style="fill:none;stroke:#000;stroke-width:31.25px;"/><path d="M3165.55,1105.46l-726.258,0" style="fill:none;stroke:#000;stroke-width:20.83px;"/><path d="M3165.55,890.097l-897.843,-0" style="fill:none;stroke:#000;stroke-width:20.83px;"/><path d="M3165.55,782.459l-689.026,-0" style="fill:none;stroke:#000;stroke-width:20.83px;"/><path d="M3165.55,997.737l-897.843,-0" style="fill:none;stroke:#000;stroke-width:20.83px;"/><path d="M3165.55,728.693l-726.258,-0" style="fill:none;stroke:#000;stroke-width:20.83px;"/><path d="M3165.55,1159.34l-823.141,0" style="fill:none;stroke:#000;stroke-width:20.83px;"/><path d="M3165.55,943.971l-621.15,-0" style="fill:none;stroke:#000;stroke-width:20.83px;"/><path d="M3165.55,836.333l-823.141,-0" style="fill:none;stroke:#000;stroke-width:20.83px;"/><path d="M3165.55,1051.61l-782.182,0" style="fill:none;stroke:#000;stroke-width:20.83px;"/><path d="M2902.06,1511.49l127.635,-131.457" style="fill:none;stroke:#000;stroke-width:31.25px;"/><path d="M1341.95,1639.61l-127.776,131.321" style="fill:none;stroke:#000;stroke-width:31.25px;"/><path d="M3157.33,1511.49l-127.636,-131.457" style="fill:none;stroke:#000;stroke-width:31.25px;"/><path d="M1086.68,1639.34l127.494,131.595" style="fill:none;stroke:#000;stroke-width:31.25px;"/></svg>