<?xml version="1.0" encoding="UTF-8" standalone="no"?>
<!DOCTYPE svg PUBLIC "-//W3C//DTD SVG 1.1//EN" "http://www.w3.org/Graphics/SVG/1.1/DTD/svg11.dtd">
<svg width="100%" height="100%" viewBox="0 0 1024 484" version="1.1" xmlns="http://www.w3.org/2000/svg" xmlns:xlink="http://www.w3.org/1999/xlink" xml:space="preserve" xmlns:serif="http://www.serif.com/" style="fill-rule:evenodd;clip-rule:evenodd;stroke-linejoin:round;stroke-miterlimit:2;">
    <g transform="matrix(1,0,0,0.999936,0,0)">
        <path d="M512,159.17L562.595,97.52C609.275,38.352 683.932,0 768,0C909.29,0 1024,108.331 1024,241.765C1024,375.199 909.29,483.531 768,483.531C676.35,483.531 595.883,437.948 550.651,369.493L512,319.115L473.349,369.493C428.117,437.948 347.65,483.531 256,483.531C114.71,483.531 0,375.199 0,241.765C0,108.331 114.71,0 256,0C340.068,0 414.725,38.352 461.405,97.52L512,159.17ZM401.901,322.227C372.116,369.547 316.807,401.367 253.556,401.367C158.798,401.367 81.866,329.95 81.866,241.985C81.866,154.02 158.798,82.603 253.556,82.603C312.979,82.603 365.392,110.688 396.211,153.318L462.518,237.038L401.901,322.227ZM622.117,322.227C651.903,369.547 707.211,401.367 770.462,401.367C865.221,401.367 942.152,329.95 942.152,241.985C942.152,154.02 865.221,82.603 770.462,82.603C711.039,82.603 658.627,110.688 627.807,153.318L561.5,237.038L622.117,322.227Z" style="fill:white;"/>
    </g>
    <g transform="matrix(1,0,0,0.999936,0,0)">
        <path d="M168.005,217.142L338.065,216.972L337.998,252.053L168.012,252L168.005,217.142Z" style="fill:white;"/>
    </g>
    <path d="M743.539,217.06L743.352,149.504L778.433,149.509L778.531,217.026L846.073,216.958L846.005,252.037L778.582,252.016L778.68,319.484L743.822,319.553L743.635,252.005L676.02,251.984L676.012,217.128L743.539,217.06Z" style="fill:white;"/>
</svg>
