<?xml version="1.0" encoding="UTF-8" standalone="no"?>
<!DOCTYPE svg PUBLIC "-//W3C//DTD SVG 1.1//EN" "http://www.w3.org/Graphics/SVG/1.1/DTD/svg11.dtd">
<svg width="100%" height="100%" viewBox="0 0 306 344" version="1.1" xmlns="http://www.w3.org/2000/svg" xmlns:xlink="http://www.w3.org/1999/xlink" xml:space="preserve" xmlns:serif="http://www.serif.com/" style="fill-rule:evenodd;clip-rule:evenodd;stroke-linecap:round;stroke-linejoin:round;stroke-miterlimit:1.5;">
    <path d="M170.461,5.42C159.667,-0.869 146.328,-0.878 135.525,5.396C105.206,23.002 43.383,58.904 14.934,75.425C5.689,80.794 0,90.677 -0,101.368L0,242.544C0,253.225 5.679,263.1 14.91,268.473C42.961,284.798 103.522,320.042 134.27,337.937C145.855,344.679 160.162,344.709 171.774,338.014C202.498,320.302 262.9,285.48 290.983,269.29C300.275,263.933 306,254.024 306,243.3C306,209.536 306,135.315 306,101.624C306,90.948 300.326,81.076 291.101,75.702C262.665,59.135 200.787,23.087 170.461,5.42ZM197.173,147.222L241.087,121.558C241.087,121.558 236.779,113.93 234.007,110.568C230.254,106.017 224.432,98.914 218.573,94.254C212.036,89.054 202.62,83.046 194.784,79.366C187.449,75.92 179.57,73.402 171.56,72.17C162.589,70.79 151.089,69.862 140.954,71.085C130.706,72.321 119.74,75.052 110.076,79.587C100.12,84.258 89.337,91.258 81.222,99.111C73.106,106.964 66.178,117.257 61.381,126.705C56.787,135.751 53.914,145.76 52.436,155.798C50.93,166.032 50.462,177.506 52.342,188.112C54.322,199.288 58.822,212.704 64.32,222.856C69.647,232.692 77.437,241.849 85.329,249.024C93.047,256.04 102.21,261.757 111.675,265.905C121.14,270.054 131.744,272.857 142.121,273.913C152.498,274.97 163.563,274.512 173.938,272.245C184.633,269.908 197.537,264.457 206.293,259.89C213.733,256.01 220.65,250.885 226.475,244.846C232.38,238.725 241.718,223.166 241.718,223.166L196.753,197.388C196.753,197.388 185.527,212.213 178.808,216.557C172.256,220.794 164.241,223.615 156.441,223.454C147.609,223.272 133.95,220.239 125.82,215.464C117.914,210.821 111.716,202.049 107.661,194.805C103.814,187.933 101.373,179.832 101.489,172C101.604,164.168 104.436,154.914 108.352,147.814C112.268,140.715 118.311,133.839 124.987,129.404C131.662,124.969 140.801,122.107 148.405,121.204C155.813,120.324 164.161,121.812 170.61,123.984C176.745,126.05 182.676,130.361 187.103,134.234C191.226,137.841 197.173,147.222 197.173,147.222ZM263.451,166.718L274.684,166.578L274.537,155.579L286.305,155.644L286.417,166.584L297.158,166.641L297.419,178.216L286.719,178.378L286.621,189.27L274.993,189.391L274.74,178.378L263.614,178.321L263.451,166.718ZM220.934,166.382L232.167,166.241L232.02,155.243L243.788,155.307L243.9,166.248L254.642,166.304L254.902,177.88L244.203,178.041L244.105,188.934L232.477,189.054L232.223,178.041L221.097,177.985L220.934,166.382Z" style="fill:white;"/>
</svg>
