<?xml version="1.0" encoding="UTF-8" standalone="no"?>
<!DOCTYPE svg PUBLIC "-//W3C//DTD SVG 1.1//EN" "http://www.w3.org/Graphics/SVG/1.1/DTD/svg11.dtd">
<svg width="100%" height="100%" viewBox="0 0 1200 1540" version="1.1" xmlns="http://www.w3.org/2000/svg" xmlns:xlink="http://www.w3.org/1999/xlink" xml:space="preserve" xmlns:serif="http://www.serif.com/" style="fill-rule:evenodd;clip-rule:evenodd;stroke-linejoin:round;stroke-miterlimit:2;">
    <g transform="matrix(1,0,0,1.00287,0,-0.151298)">
        <path d="M751.95,0.465C772.238,107.113 748.36,147.26 726.793,190.452C700.97,225.642 681.175,250.025 665.293,264.585C614.91,310.772 575.271,343.265 519.23,386.708C452.722,442.5 406.072,495.712 398.009,543.909C395.394,603.776 419.365,649.327 450.932,690.788C495.359,747.118 547.324,797.313 599.079,842.504C590.471,822.932 572.583,794.487 551.627,763.107C526.639,730.601 504.813,694.941 487.114,655.165C471.896,615.1 471.324,574.413 489.191,532.942C507.188,491.118 541.413,452.112 587.293,415.13C619.209,390.743 658.22,354.825 705.773,305.324C732.904,273.365 762.742,239.368 781.389,182.96C791.341,152.855 796.045,111.009 786.165,72.547C783.589,49.671 774.466,22.743 751.95,0.465Z" style="fill:white;"/>
    </g>
    <g transform="matrix(1,0,0,1.00287,0,-0.151298)">
        <path d="M651,896.771C679.273,881.191 708.416,856.846 737.985,828.197C754.4,808.308 766.36,786.842 772.847,763.438C776.472,735.586 771.203,708.712 753.21,683.236C728.083,647.87 706.427,614.736 694.883,588.104C682.41,556.722 687.468,523.761 711.471,489.095C730.467,464.63 753.211,441.831 780.929,421.242C779.842,416.811 941.366,316.262 941.366,316.262C941.366,316.262 901.346,328.998 859.602,344.844C818.244,360.544 776.443,377.324 775.154,379.962C737.988,397.876 706.266,418.932 678.715,442.395C648.74,466.577 627.472,494.609 613.119,525.698C602.453,551.825 600.224,577.824 602.902,603.748C605.355,630.369 613.704,653.626 626.395,674.408C637.864,696.278 651.407,715.294 666.369,732.356C685.559,753.608 696.385,776.98 697.568,802.796C695.619,839.902 677.526,870.257 651,896.771Z" style="fill:white;"/>
    </g>
    <g transform="matrix(1,0,0,1.00287,0,-0.151298)">
        <path d="M423.61,845.957C388.424,845.694 347.941,848.991 311.916,857.462C281.959,864.263 253.942,872.787 227.342,882.573C204.45,892.147 185.041,900.904 171.837,908.208C160.347,915.143 153.731,922.549 154.503,930.67C156.632,938.425 164.222,945.012 177.447,949.203C189.236,953.758 201.914,957.404 215.637,959.976C242.263,966.21 271.312,970.049 301.188,973.072C357.668,978.19 416.811,980.508 478.626,979.155C523.233,978.764 569.021,976.561 616.188,973.408C658.574,971.554 699.724,967.236 740.008,961.191C779.71,955.38 818.457,948.358 854.947,938.467C876.204,925.821 897.881,914.376 919.959,904.083C885.727,909.747 850.052,915.06 812.268,919.858C772.323,925.333 732.854,930.237 692.671,933.147C647.051,936.721 601.358,940.455 554.79,940.603C508.202,942.416 461.132,943.438 413.548,943.618C370.439,941.73 331.359,939.333 310.078,934.693C296.136,932.377 282.95,928.961 271.63,922.831C262.168,915.298 264.873,906.409 274.933,899.585C282.285,893.994 289.77,889.408 302.728,883.956C314.28,878.485 327.612,873.492 341.324,869.548C366.961,860.415 395.282,853.352 423.61,845.957Z" style="fill:white;"/>
    </g>
    <g transform="matrix(1,0,0,1.00287,0,-0.151298)">
        <path d="M921.679,1132.49C923.505,1129.42 924.648,1127.27 925.169,1125.95C925.169,1125.95 948.484,1113.83 959.651,1106.93C973.899,1098.13 994.559,1085.67 1010.66,1073.15C1027.56,1060.01 1047.09,1044.78 1061.08,1028.04C1074.91,1011.5 1088.48,990.283 1094.61,972.72C1100.12,956.933 1101.05,938.076 1097.85,922.666C1094.65,907.255 1086.38,891.735 1075.4,880.255C1064.42,868.774 1046.29,858.726 1031.96,853.782C1018.52,849.146 1002.42,849.412 989.445,850.589C977.234,851.697 954.123,860.847 954.123,860.847C955.706,857.182 960.811,851.333 965.438,847.988C970.29,844.482 977.031,841.842 983.235,839.809C990.679,837.37 1000.96,834.455 1010.1,833.353C1021.57,831.97 1039.08,830.435 1052.03,831.515C1064.24,832.533 1076.46,835.474 1087.82,839.835C1099.19,844.196 1110.78,849.737 1120.2,857.68C1130.64,866.479 1143.51,878.868 1150.44,892.625C1157.6,906.838 1162.7,927.403 1163.18,942.959C1163.63,957.659 1159.28,972.522 1153.31,985.962C1147.03,1000.09 1135.53,1015.9 1125.52,1027.69C1116.16,1038.72 1104.36,1048.1 1093.26,1056.71C1082.43,1065.12 1070.82,1072.55 1058.92,1079.38C1046.28,1086.65 1030.22,1094.44 1017.39,1100.29C1005.8,1105.57 993.851,1110.03 981.912,1114.46C967.883,1119.67 924.02,1132.29 921.679,1132.49Z" style="fill:white;"/>
    </g>
    <g transform="matrix(1,0,0,1.00287,0,-0.151298)">
        <path d="M356.853,1021.55C356.066,1020.35 315.593,1037.14 303.549,1045.6C295.097,1051.54 284.809,1059.78 280.919,1066.77C277.551,1072.82 276.954,1081.42 280.208,1087.53C283.733,1094.15 293.535,1101.99 302.068,1106.49C313.909,1112.73 335.524,1120.29 351.253,1124.99C366.012,1129.39 381.219,1132.28 396.438,1134.65C413.504,1137.31 434.52,1139.43 453.645,1140.92C473.903,1142.5 496.517,1143.66 517.986,1144.13C540.113,1144.62 564.138,1144.76 586.409,1143.84C608.195,1142.93 630.256,1140.77 651.613,1138.59C672.645,1136.44 693.652,1133.94 714.551,1130.74C735.543,1127.53 756.701,1123.84 777.564,1119.32C802.516,1113.92 864.263,1098.33 864.263,1098.33C864.263,1098.33 845.4,1090.17 836.864,1084.54C826.988,1078.03 805.007,1059.26 805.007,1059.26C805.007,1059.26 741.169,1071.44 708.996,1075.91C674.221,1080.74 631.992,1086.26 596.356,1088.23C562.681,1090.09 528.11,1088.92 495.178,1087.71C462.982,1086.52 424.206,1083.75 398.761,1080.96C378.429,1078.73 351.519,1071.4 343.461,1063.83C335.63,1056.48 338.892,1043.3 343.566,1036.41C346.827,1031.61 356.853,1021.55 356.853,1021.55Z" style="fill:white;"/>
    </g>
    <g transform="matrix(1,0,0,1.00287,0,-0.151298)">
        <path d="M395.408,1187.12C395.408,1187.12 372.166,1194.37 362.346,1199.02C353.182,1203.36 342.882,1208.53 336.487,1215.05C330.357,1221.29 322.931,1229.72 323.972,1238.13C325.013,1246.54 333.642,1259.2 342.733,1265.5C355.744,1274.52 381.89,1285.46 402.039,1292.25C421.989,1298.98 444.092,1302.85 463.628,1306.23C482.016,1309.41 500.639,1311.26 519.256,1312.54C538.178,1313.84 557.853,1314.37 577.157,1314.03C597.494,1313.68 622.265,1312.02 641.283,1310.4C658.008,1308.97 674.712,1307.05 691.267,1304.28C709.731,1301.19 732.174,1297.53 752.065,1291.86C763.857,1288.49 788.208,1281.07 802.945,1276.05C815.624,1271.73 840.488,1261.72 840.488,1261.72C840.488,1261.72 810.137,1249.38 796.243,1242.62C782.867,1236.1 757.123,1221.13 757.123,1221.13C757.123,1221.13 707.445,1231.36 682.33,1234.71C655.864,1238.25 622.935,1241.18 598.329,1242.37C577.142,1243.39 555.89,1242.7 534.695,1241.86C512.355,1240.98 486.41,1239.42 464.293,1237.07C443.41,1234.84 415.375,1230.92 401.989,1227.72C395.328,1226.12 387.399,1222 383.974,1217.84C380.733,1213.9 379.661,1207.53 381.44,1202.75C383.346,1197.63 395.408,1187.12 395.408,1187.12Z" style="fill:white;"/>
    </g>
    <g transform="matrix(1,0,0,1.00287,0,-0.151298)">
        <path d="M274.763,1306.44C274.763,1306.44 264.237,1301.58 258.577,1300.78C245.764,1298.97 217.501,1299.57 197.164,1303.82C176.425,1308.16 153.292,1313.81 133.009,1320.65C113.29,1327.3 90.698,1336.77 75.464,1344.86C63.193,1351.37 48.805,1361.55 41.605,1369.16C36.264,1374.81 31.174,1383.6 32.265,1390.52C33.356,1397.44 40.896,1406.14 48.152,1410.67C56.824,1416.09 71.961,1419.86 84.298,1423C97.481,1426.36 112.885,1428.5 127.254,1430.81C143.869,1433.49 165.048,1436.51 183.988,1439.06C204.127,1441.76 226.68,1444.77 248.09,1447.07C271.273,1449.56 299.97,1452.14 323.084,1454.01C344.293,1455.73 365.522,1457.23 386.773,1458.29C409.786,1459.44 436.356,1460.38 461.162,1460.91C492.958,1461.58 541.26,1463.03 577.55,1462.31C611.38,1461.63 645.147,1458.97 678.898,1456.55C714.123,1454.02 755.358,1450.84 788.904,1447.15C819.439,1443.79 850.568,1439.68 880.175,1434.39C909.192,1429.21 940.16,1422.63 966.542,1415.39C990.962,1408.69 1018.63,1399.62 1038.47,1390.95C1055.14,1383.65 1075.96,1371.04 1085.55,1363.33C1091.09,1358.87 1095.2,1350.49 1095.98,1344.71C1096.74,1339.08 1094.07,1332.85 1090.22,1328.66C1085.41,1323.41 1067.12,1313.21 1067.12,1313.21C1067.12,1313.21 1072.12,1317.73 1074.65,1324.3C1076.64,1329.48 1077.05,1335.71 1076.42,1339.14C1074.99,1346.94 1066.79,1354.74 1059.2,1359.23C1047.54,1366.11 1024.71,1375.27 1006.49,1380.44C985.058,1386.52 956.1,1391.76 930.602,1395.71C900.712,1400.34 861.748,1405.14 827.151,1408.24C784.276,1412.09 722.818,1416.59 673.352,1418.79C625.724,1420.9 577.415,1421.63 530.353,1421.42C483.878,1421.21 437.371,1420.34 390.98,1417.54C344.533,1414.74 289.217,1409.97 251.671,1404.6C222.596,1400.43 184.752,1390.37 165.699,1385.29C155.888,1382.68 143.641,1378.25 137.352,1374.15C132.769,1371.16 127.96,1365.27 127.967,1360.68C127.974,1356.1 132.876,1350 137.394,1346.62C143.492,1342.06 155.183,1337.02 164.558,1333.3C176.413,1328.61 193.493,1322.09 208.525,1318.43C226.893,1313.95 274.763,1306.44 274.763,1306.44Z" style="fill:white;"/>
    </g>
    <g transform="matrix(1,0,0,1.00287,0,-0.151298)">
        <path d="M236.264,1489.75C236.264,1489.75 286.918,1497.92 312.43,1500.47C344.2,1503.64 395.329,1506.9 426.884,1508.77C451.817,1510.24 478.454,1511.15 501.759,1511.64C523.405,1512.1 545.709,1511.95 566.712,1511.74C587.07,1511.52 607.43,1511.13 627.773,1510.33C649.92,1509.45 675.669,1508 699.597,1506.48C725.563,1504.84 758.384,1502.73 783.567,1500.45C805.995,1498.41 828.439,1495.69 850.691,1492.79C872.871,1489.9 895.039,1486.84 917.083,1483.06C939.153,1479.27 962.098,1474.8 983.112,1470.04C1003.28,1465.48 1024.72,1460.05 1043.16,1454.54C1060.28,1449.43 1078.56,1443.32 1093.79,1436.97C1107.82,1431.11 1122.85,1424.16 1134.51,1416.41C1145.37,1409.21 1163.79,1390.51 1163.79,1390.51C1163.79,1390.51 1159.43,1408.75 1155.4,1416.33C1151.46,1423.75 1145.88,1430.39 1139.63,1435.99C1131.66,1443.13 1119.08,1452.67 1107.61,1459.14C1094.76,1466.39 1077.94,1473.66 1062.51,1479.48C1046.59,1485.49 1029.18,1490.95 1012.09,1495.17C990.318,1500.56 958.775,1507.16 931.855,1511.78C904.2,1516.52 874.831,1520.52 846.164,1523.62C817.141,1526.77 787.237,1528.88 757.713,1530.65C725.288,1532.6 687.008,1534.64 651.615,1535.3C615.149,1535.97 576.464,1535.94 538.917,1534.72C499.7,1533.44 452.692,1530.71 416.307,1527.63C384.297,1524.92 345.043,1520.15 320.611,1516.23C303.392,1513.47 283.772,1508.54 269.714,1504.12C258.135,1500.49 236.264,1489.75 236.264,1489.75Z" style="fill:white;"/>
    </g>
</svg>
