<?xml version="1.0" encoding="UTF-8" standalone="no"?>
<!DOCTYPE svg PUBLIC "-//W3C//DTD SVG 1.1//EN" "http://www.w3.org/Graphics/SVG/1.1/DTD/svg11.dtd">
<svg width="100%" height="100%" viewBox="0 0 2560 1067" version="1.1" xmlns="http://www.w3.org/2000/svg" xmlns:xlink="http://www.w3.org/1999/xlink" xml:space="preserve" xmlns:serif="http://www.serif.com/" style="fill-rule:evenodd;clip-rule:evenodd;stroke-linejoin:round;stroke-miterlimit:2;">
    <path d="M150.941,130.766C168.551,130.892 182.76,145.202 182.761,162.812C182.771,265.206 182.801,585.623 182.811,690.647C182.813,709.281 167.744,724.408 149.109,724.477C120.821,724.582 85,724.715 85,724.715L85,754.686L583.47,754.405L609.337,508.047L585.501,508.155C585.501,508.155 581.683,539.438 576.952,578.203C566.762,661.696 496.014,724.548 411.902,724.832C366.133,724.987 320.605,725.141 293.463,725.233C286.806,725.255 280.413,722.626 275.698,717.926C270.982,713.225 268.332,706.841 268.333,700.183C268.347,606.852 268.397,279.83 268.413,168.068C268.415,158.058 272.4,148.459 279.489,141.391C286.577,134.323 296.187,130.367 306.198,130.395C342.002,130.495 390.342,130.63 390.342,130.63L390.3,101.835C284.158,105.832 182.335,106.025 85,102.264L85,130.294C85,130.294 122.406,130.562 150.941,130.766Z" style="fill:white;"/>
    <path d="M323.516,538.553C323.516,538.553 328.881,538.594 336.384,538.652C364.384,538.868 389.631,521.834 399.913,495.79C440.032,394.171 538.476,144.821 558.503,94.094C560.669,88.606 565.97,85 571.87,85L576.641,85C582.972,85 588.662,88.865 590.994,94.751C613.567,151.71 728.422,441.525 759.105,518.948C763.677,530.485 774.717,538.159 787.123,538.426C804.136,538.791 825.572,539.252 825.572,539.252L825.925,561.928L637.517,562.467L637.43,539.094C637.43,539.094 654.952,538.949 671.464,538.813C677.96,538.759 684.016,535.518 687.665,530.143C691.313,524.767 692.089,517.943 689.741,511.886C675.15,474.254 650.29,410.136 650.29,410.136L459.511,410.216C459.511,410.216 441.738,455.716 427.297,492.687C423.199,503.177 424.561,515.016 430.934,524.301C437.307,533.587 447.864,539.114 459.126,539.063C466.835,539.028 472.294,539.003 472.294,539.003L471.785,562.614L323.598,562.607L323.516,538.553ZM468.88,386.009L554.585,168.445L640.892,386.607L468.88,386.009Z" style="fill:white;"/>
    <path d="M760.444,321.927L777.528,107.369L1362.2,107.3L1380.02,320.869L1822.91,320.879L1849.83,535.661L1826.04,535.514C1826.04,535.514 1821.58,505.037 1816.27,468.676C1806.17,399.557 1746.87,348.326 1677.02,348.369C1611.54,348.409 1536.25,348.456 1496.43,348.481C1488.98,348.485 1481.84,351.452 1476.59,356.727C1471.33,362.002 1468.39,369.151 1468.42,376.597C1468.64,445.514 1469.2,617.345 1469.2,617.345C1469.2,617.345 1531.96,617.301 1584.55,617.264C1623.77,617.236 1655.79,585.9 1656.66,546.691C1657.15,524.798 1657.56,506.293 1657.56,506.293L1681.48,505.962L1681.36,759.22L1658.53,759.513C1658.53,759.513 1657.96,740.649 1657.28,718.317C1656.07,678.233 1623.09,646.443 1582.99,646.713C1530.58,647.067 1468.81,647.483 1468.81,647.483C1468.81,647.483 1468.53,844.53 1468.43,915.766C1468.42,922.479 1471.08,928.921 1475.82,933.674C1480.56,938.427 1486.99,941.103 1493.71,941.112C1533.89,941.168 1614.79,941.281 1683.61,941.376C1753,941.473 1813.47,894.106 1829.99,826.706C1839.45,788.122 1847.64,754.686 1847.64,754.686L1805.15,754.686L1804.95,725.617C1804.95,725.617 1815.09,725.335 1828.78,724.955C1874.43,723.687 1916.67,700.515 1942.27,662.701C2000.28,577.012 2099.68,430.184 2099.68,430.184C2099.68,430.184 1976.64,243.106 1925.43,165.257C1911.7,144.376 1888.55,131.616 1863.56,131.158C1840.6,130.737 1816.27,130.29 1816.27,130.29L1816.16,101.835C1905.32,105.139 1993.26,105.182 2079.96,101.835L2080.08,130.212C2080.08,130.212 2065.43,131.583 2048.75,133.144C2038.73,134.08 2029.95,140.219 2025.63,149.301C2021.31,158.384 2022.09,169.07 2027.68,177.431C2070.15,240.944 2148.49,358.085 2148.49,358.085C2148.49,358.085 2213.22,262.596 2258.29,196.106C2266.8,183.549 2267.79,167.35 2260.87,153.853C2253.94,140.356 2240.21,131.709 2225.05,131.298C2214.84,131.021 2207.79,130.83 2207.79,130.83L2207.35,101.835L2435.17,101.835L2435.61,130.31C2435.61,130.31 2425.3,130.529 2411.4,130.823C2365.76,131.788 2323.38,154.682 2297.55,192.324C2246.28,267.059 2165.3,385.075 2165.3,385.075C2165.3,385.075 2311.01,605.789 2367.55,691.429C2381.32,712.294 2404.62,724.888 2429.62,724.983C2452.23,725.07 2476,725.16 2476,725.16L2476,754.686C2387.59,749.469 2299.67,749.864 2212.15,754.686L2212.17,725.263C2212.17,725.263 2225.12,725.051 2240.75,724.796C2251.53,724.62 2261.34,718.579 2266.36,709.042C2271.37,699.505 2270.78,687.993 2264.81,679.021C2214.3,603.019 2117.36,457.185 2117.36,457.185C2117.36,457.185 2034.92,579.701 1981.77,658.691C1973.06,671.642 1972.15,688.329 1979.41,702.147C1986.67,715.965 2000.93,724.686 2016.54,724.856C2026.22,724.962 2032.79,725.034 2032.79,725.034L2033.07,754.686L1871.26,754.686L1836.13,971L1285.93,971L1285.24,941.301C1285.24,941.301 1321.6,940.824 1349.95,940.452C1368.21,940.213 1382.89,925.347 1382.91,907.083C1382.98,803.074 1383.2,482.545 1383.27,381.108C1383.28,363.884 1369.39,349.875 1352.17,349.734C1323.56,349.499 1285.56,349.187 1285.56,349.187L1285.61,320.46L1356.8,321.024C1356.8,321.024 1352.15,279.779 1347.25,236.295C1340.85,179.479 1292.83,136.516 1235.65,136.459C1199.21,136.422 1161.12,136.383 1137.06,136.359C1130.47,136.352 1124.15,138.965 1119.5,143.622C1114.84,148.278 1112.23,154.596 1112.23,161.182C1112.3,252.579 1112.55,570.666 1112.64,684.311C1112.66,706.861 1130.87,725.171 1153.42,725.306C1194.37,725.552 1251.46,725.895 1251.46,725.895L1251.63,754.686C1128.69,749.431 1007.87,749.407 889.191,754.686L888.957,725.594C888.957,725.594 946.029,725.056 987.235,724.668C1010.2,724.451 1028.7,705.747 1028.65,682.778C1028.43,569.043 1027.83,254.635 1027.64,161.54C1027.63,154.582 1024.84,147.916 1019.9,143.022C1014.95,138.128 1008.25,135.41 1001.3,135.47C976.197,135.689 936.84,136.032 899.912,136.353C845.479,136.828 799.887,177.696 793.486,231.754C788.108,277.177 782.814,321.883 782.814,321.883L760.444,321.927Z" style="fill:white;"/>
</svg>
