<?xml version="1.0" encoding="UTF-8" standalone="no"?>
<!DOCTYPE svg PUBLIC "-//W3C//DTD SVG 1.1//EN" "http://www.w3.org/Graphics/SVG/1.1/DTD/svg11.dtd">
<svg width="100%" height="100%" viewBox="0 0 1200 1043" version="1.1" xmlns="http://www.w3.org/2000/svg" xmlns:xlink="http://www.w3.org/1999/xlink" xml:space="preserve" xmlns:serif="http://www.serif.com/" style="fill-rule:evenodd;clip-rule:evenodd;stroke-linejoin:round;stroke-miterlimit:2;">
    <g transform="matrix(0.998062,0,0,0.998062,1.16251,1.01042)">
        <path d="M600,282.1C923.974,282.1 1187,389.372 1187,521.5C1187,653.628 923.974,760.9 600,760.9C276.026,760.9 13,653.628 13,521.5C13,389.372 276.026,282.1 600,282.1ZM600,331.832C895.488,331.832 1135.39,416.819 1135.39,521.5C1135.39,626.181 895.488,711.168 600,711.168C304.512,711.168 64.613,626.181 64.613,521.5C64.613,416.819 304.512,331.832 600,331.832Z" style="fill:white;"/>
    </g>
    <g transform="matrix(0.498453,-0.864681,0.864681,0.498453,-150.003,780.365)">
        <path d="M600,282.1C923.974,282.1 1187,389.372 1187,521.5C1187,653.628 923.974,760.9 600,760.9C276.026,760.9 13,653.628 13,521.5C13,389.372 276.026,282.1 600,282.1ZM600,331.832C895.488,331.832 1135.39,416.819 1135.39,521.5C1135.39,626.181 895.488,711.168 600,711.168C304.512,711.168 64.613,626.181 64.613,521.5C64.613,416.819 304.512,331.832 600,331.832Z" style="fill:white;"/>
    </g>
    <g transform="matrix(-0.500187,-0.863679,0.863679,-0.500187,449.704,1300.56)">
        <path d="M600,282.1C923.974,282.1 1187,389.372 1187,521.5C1187,653.628 923.974,760.9 600,760.9C276.026,760.9 13,653.628 13,521.5C13,389.372 276.026,282.1 600,282.1ZM600,331.832C895.488,331.832 1135.39,416.819 1135.39,521.5C1135.39,626.181 895.488,711.168 600,711.168C304.512,711.168 64.613,626.181 64.613,521.5C64.613,416.819 304.512,331.832 600,331.832Z" style="fill:white;"/>
    </g>
    <g transform="matrix(1.86844,0,0,1.95988,-534.647,-460.76)">
        <ellipse cx="607.271" cy="501.184" rx="55.799" ry="53.283" style="fill:white;"/>
    </g>
</svg>
