<?xml version="1.0" encoding="UTF-8" standalone="no"?>
<!DOCTYPE svg PUBLIC "-//W3C//DTD SVG 1.1//EN" "http://www.w3.org/Graphics/SVG/1.1/DTD/svg11.dtd">
<svg width="100%" height="100%" viewBox="0 0 2560 2040" version="1.1" xmlns="http://www.w3.org/2000/svg" xmlns:xlink="http://www.w3.org/1999/xlink" xml:space="preserve" xmlns:serif="http://www.serif.com/" style="fill-rule:evenodd;clip-rule:evenodd;stroke-linecap:round;stroke-linejoin:round;stroke-miterlimit:1.5;">
    <path d="M1280,2040C1280,2040 839.757,2040 544.541,2039.99C404.947,2039.99 291.091,1928.15 288.595,1788.58C285.063,1584.23 261.23,1309.99 166.22,1184.49C84.385,1076.39 0,1086.03 0,1086.03L0,953.97C0,953.97 84.385,963.612 166.22,855.512C261.23,730.008 285.063,455.774 288.595,251.424C291.091,111.852 404.947,0.013 544.541,0.013C839.757,0 1280,0 1280,0L1537.02,0.002C1683.99,0.003 1867.85,0.007 2015.46,0.013C2155.05,0.013 2268.91,111.852 2271.41,251.424C2274.94,455.774 2298.77,730.008 2393.78,855.512C2475.62,963.612 2560,953.97 2560,953.97L2560,1086.03C2560,1086.03 2475.62,1076.39 2393.78,1184.49C2298.77,1309.99 2274.94,1584.23 2271.41,1788.58C2268.91,1928.15 2155.05,2039.99 2015.46,2039.99C1720.24,2040 1280,2040 1280,2040ZM887.273,473.079L887.273,1566.92L1441.23,1566.92C1514.16,1566.92 1584.11,1537.95 1635.68,1486.38C1687.25,1434.8 1716.23,1364.86 1716.23,1291.92L1716.23,1259.38C1716.23,1186.44 1687.25,1116.49 1635.68,1064.92C1589.28,1018.52 1527.99,990.409 1463.04,985.242C1581.91,963.136 1671.92,858.865 1671.92,733.569L1671.92,729.079C1671.92,587.694 1557.3,473.079 1415.92,473.079L887.273,473.079ZM1540.21,1246.19C1540.21,1199.25 1521.56,1154.24 1488.37,1121.04C1455.18,1087.85 1410.16,1069.2 1363.22,1069.2L1066.41,1069.2L1066.41,1423.19L1363.22,1423.19C1410.16,1423.19 1455.18,1404.54 1488.37,1371.35C1521.56,1338.15 1540.21,1293.13 1540.21,1246.19L1540.21,1246.19ZM1486.82,776.496C1486.82,734.655 1470.2,694.527 1440.62,664.94C1411.03,635.354 1370.9,618.732 1329.06,618.732L1066.41,618.732L1066.41,934.262L1329.06,934.262C1370.9,934.262 1411.03,917.641 1440.62,888.054C1470.2,858.468 1486.82,818.34 1486.82,776.498L1486.82,776.496Z" style="fill:white;stroke:white;stroke-width:1px;"/>
</svg>
