<?xml version="1.0" encoding="UTF-8" standalone="no"?>
<!DOCTYPE svg PUBLIC "-//W3C//DTD SVG 1.1//EN" "http://www.w3.org/Graphics/SVG/1.1/DTD/svg11.dtd">
<svg width="100%" height="100%" viewBox="0 0 383 383" version="1.1" xmlns="http://www.w3.org/2000/svg" xmlns:xlink="http://www.w3.org/1999/xlink" xml:space="preserve" xmlns:serif="http://www.serif.com/" style="fill-rule:evenodd;clip-rule:evenodd;stroke-linejoin:round;stroke-miterlimit:2;">
    <path d="M182.446,85.609L138.893,42.037C138.893,42.037 157.069,23.939 172.054,9.019C182.8,-1.681 200.181,-1.662 210.904,9.062C249.445,47.607 335.248,133.419 373.848,172.022C379.01,177.185 381.908,184.189 381.902,191.49C381.895,198.791 378.986,205.79 373.815,210.944C335.197,249.435 249.427,334.923 210.899,373.324C200.173,384.015 182.821,384.021 172.087,373.338C133.497,334.932 47.541,249.388 8.879,210.91C3.707,205.763 0.793,198.772 0.777,191.476C0.762,184.18 3.647,177.177 8.796,172.008C45.593,135.075 121.827,58.56 121.827,58.56L165.112,101.544C163.45,105.249 162.526,109.356 162.526,113.678C162.526,126.319 170.439,137.129 181.583,141.429L181.229,245.647C170.271,250.038 162.526,260.752 162.526,273.259C162.526,289.671 175.861,302.995 192.287,302.995C208.713,302.995 222.049,289.671 222.049,273.259C222.049,261.497 215.199,251.321 205.271,246.499L205.361,142.588L244.632,182.156C243.189,185.632 242.392,189.441 242.392,193.434C242.392,209.746 255.687,222.989 272.062,222.989C288.438,222.989 301.733,209.746 301.733,193.434C301.733,177.122 288.438,163.879 272.062,163.879C268.516,163.879 265.113,164.5 261.959,165.64L262.204,165.401L220.367,123.547C221.456,120.46 222.049,117.137 222.049,113.678C222.049,97.266 208.713,83.942 192.287,83.942C188.839,83.942 185.528,84.529 182.446,85.609Z" style="fill:white;"/>
</svg>
