<?xml version="1.0" encoding="UTF-8" standalone="no"?>
<!DOCTYPE svg PUBLIC "-//W3C//DTD SVG 1.1//EN" "http://www.w3.org/Graphics/SVG/1.1/DTD/svg11.dtd">
<svg width="100%" height="100%" viewBox="0 0 2776 2776" version="1.1" xmlns="http://www.w3.org/2000/svg" xmlns:xlink="http://www.w3.org/1999/xlink" xml:space="preserve" xmlns:serif="http://www.serif.com/" style="fill-rule:evenodd;clip-rule:evenodd;stroke-linecap:round;stroke-linejoin:round;stroke-miterlimit:1.5;">
    <g transform="matrix(3.51723,0,0,3.59042,-4121.29,-145.576)">
        <path d="M1524.33,663.878C1524.33,663.878 1466.52,600.62 1444.87,565.485C1424.39,532.266 1396.19,454.74 1396.19,454.74C1396.19,454.74 1370.52,480.648 1364.36,497.241C1357.24,516.424 1353.81,570.538 1353.81,570.538C1353.81,570.538 1314.45,566.45 1309,467.815C1305.54,405.219 1331.05,349.511 1331.05,349.511C1331.05,349.511 1336.37,338.375 1329.23,329.504C1315.12,311.981 1299.58,301.335 1291.04,274.69C1279.92,239.998 1269.61,201.201 1255.43,177.432C1215.45,110.465 1188.02,98.127 1200.59,73.411C1209.3,56.288 1241.03,73.88 1276.12,89.037C1298.73,98.801 1315.37,118.284 1315.37,118.284C1342.7,119.552 1369.45,120.444 1395.6,128.25C1425.48,141.593 1453.53,156.657 1479.17,175.376C1539.38,217.258 1586.79,272.687 1624.84,338.022C1654.73,403.994 1667.17,443.883 1707.34,518.59C1711.99,527.241 1717.18,537.888 1729.43,542.354C1749.51,549.678 1775.15,557.283 1798.23,567.311C1823.33,578.216 1840.68,593.354 1855.53,604.204C1869.63,614.501 1881.75,619.387 1888.55,625.216C1894.99,630.736 1899.19,638.476 1899.19,638.476C1839.7,638.66 1784.43,648.527 1772.15,665.417C1781.46,690.957 1797.55,708.805 1816.9,722.903L1851.34,746.82C1890.42,759.157 1926.8,786.438 1961,813.713C1946.69,788.638 1922.02,761.196 1891.13,732.332C1842.98,703.032 1814.73,684.8 1818.59,676.164C1832.85,673.95 1847.93,669.314 1862.67,666.666C1897.5,660.408 1929.19,655.587 1934.83,650.55C1915.86,618.396 1883.48,591.908 1846.71,567.276C1814.98,544.799 1781.05,526.551 1743.14,515.971C1711,453.806 1682.07,392.605 1656.41,332.396C1626.56,273.812 1585.86,222.755 1534.2,179.301C1491.67,147.598 1464.36,126.293 1416.68,104.751C1389.83,95.262 1362.11,90.939 1333.53,91.621C1333.53,91.621 1234.72,11.837 1187.02,51.703C1138.06,92.621 1221.22,143.124 1235.14,182.154C1247.43,216.569 1259.69,260.167 1270.59,285.887C1288.54,328.236 1308.66,341.93 1308.66,341.93C1308.66,341.93 1272.4,429.271 1288.5,504.167C1291.4,517.668 1302.54,599.727 1359.09,599.78C1393.1,599.812 1395.15,513.992 1395.15,513.992C1395.15,513.992 1422.7,571.981 1438.47,589.884C1460.12,614.456 1524.33,663.878 1524.33,663.878ZM1332.67,178.491C1342.67,185.564 1360.6,217.507 1361.2,222.085C1361.96,227.796 1375.73,203.153 1372.92,196.502C1369.98,189.554 1362.71,174.94 1353.02,172.193C1345.8,170.147 1326.55,174.157 1332.67,178.491Z" style="fill:white;stroke:white;stroke-width:0.56px;"/>
    </g>
</svg>
