<?xml version="1.0" encoding="UTF-8" standalone="no"?>
<!DOCTYPE svg PUBLIC "-//W3C//DTD SVG 1.1//EN" "http://www.w3.org/Graphics/SVG/1.1/DTD/svg11.dtd">
<svg width="100%" height="100%" viewBox="0 0 1280 691" version="1.1" xmlns="http://www.w3.org/2000/svg" xmlns:xlink="http://www.w3.org/1999/xlink" xml:space="preserve" xmlns:serif="http://www.serif.com/" style="fill-rule:evenodd;clip-rule:evenodd;stroke-linejoin:round;stroke-miterlimit:2;">
    <path d="M640,0C993.226,0 1280,154.813 1280,345.5C1280,536.187 993.226,691 640,691C286.774,691 0,536.187 0,345.5C0,154.813 286.774,0 640,0ZM213.494,527.931L278.033,200.473L435.725,201.528C435.725,201.528 540.959,211.937 524.912,309.581C502.49,446.015 387.317,439.247 387.317,439.247L302.56,440.755L285.755,527.422L213.494,527.931ZM771.373,527.931L835.913,200.473L993.604,201.528C993.604,201.528 1098.84,211.937 1082.79,309.581C1060.37,446.015 945.197,439.247 945.197,439.247L860.44,440.755L843.635,527.422L771.373,527.931ZM582.28,114.46L519.482,440.516L588.696,440.679L624.562,253.178C624.562,253.178 681.141,251.438 696.48,252.977C705.004,253.832 714.292,256.099 720.185,262.909C723.076,266.251 724.653,277.242 723.6,284.429C719.273,313.975 694.224,440.185 694.224,440.185L764.333,439.485L795.651,277.771C795.651,277.771 803.341,238.257 778.268,218.053C761.506,204.546 718.047,200.473 718.047,200.473L634.929,200.473L651.86,114.456L582.28,114.46ZM897.291,252.643L869.435,389.338L929.36,388.703C929.36,388.703 987.908,396.861 1006.84,324.089C1025.9,250.847 962.071,252.598 962.071,252.598L897.291,252.643ZM339.412,252.643L311.941,388.51L371.48,388.703C371.48,388.703 430.028,396.861 448.961,324.089C468.016,250.847 404.191,252.598 404.191,252.598L339.412,252.643Z" style="fill:white;stroke:white;stroke-width:0.56px;"/>
</svg>
