<?xml version="1.0" encoding="UTF-8" standalone="no"?>
<!DOCTYPE svg PUBLIC "-//W3C//DTD SVG 1.1//EN" "http://www.w3.org/Graphics/SVG/1.1/DTD/svg11.dtd">
<svg width="100%" height="100%" viewBox="0 0 2048 2048" version="1.1" xmlns="http://www.w3.org/2000/svg" xmlns:xlink="http://www.w3.org/1999/xlink" xml:space="preserve" xmlns:serif="http://www.serif.com/" style="fill-rule:evenodd;clip-rule:evenodd;stroke-linejoin:round;stroke-miterlimit:2;">
    <path d="M532.088,460.436L1029.71,460.573L1029.68,530.814C1029.68,530.814 440.923,531.883 305.028,530.935C274.445,530.722 242.374,541.02 215.657,551.696C189.934,561.974 165.675,576.868 144.724,594.989C122.309,614.376 98.203,640.614 81.165,668.023C62.23,698.483 43.527,739.667 31.115,777.751C18.703,815.835 11.882,860.234 6.696,896.529C2.018,929.268 0.027,962.446 0,995.518C-0.034,1037.22 4.056,1112.55 6.491,1146.74C7.783,1164.87 11.487,1182.76 14.615,1200.66C17.907,1219.5 20.421,1240.56 26.239,1259.79C34.487,1287.04 50.705,1335.53 64.102,1364.18C75.368,1388.27 90,1411.47 106.625,1431.69C123.25,1451.91 143.691,1471.31 163.853,1485.51C183.216,1499.14 204.99,1509.83 227.599,1516.87C250.275,1523.93 275.55,1526.78 299.904,1527.89C339.483,1529.69 465.074,1527.69 465.074,1527.69C465.074,1527.69 465.04,1396.3 465.007,1263.95C464.969,1115.12 585.371,994.327 734.198,993.881C928.805,993.509 1171.44,992.932 1254.32,992.263C1283.83,992.025 1314.5,985.299 1341.55,977.03C1367.87,968.983 1395.11,956.515 1416.61,942.647C1436.98,929.503 1455.61,912.938 1470.52,893.822C1485.94,874.055 1500.59,846.422 1509.14,824.045C1516.95,803.579 1519.27,778.213 1521.81,759.554C1523.94,743.856 1524.29,727.937 1524.35,712.094C1524.66,627.205 1525.43,335.687 1523.69,250.221C1523.35,232.943 1520.19,215.416 1513.95,199.301C1507.05,181.478 1496.07,159.709 1482.27,143.278C1466.42,124.398 1441.55,101.851 1418.86,86.021C1396.46,70.395 1371.57,58.216 1346.13,48.293C1319.31,37.834 1287.96,28.985 1257.94,23.263C1215.72,15.214 1143.5,3.877 1092.79,0C1046.56,-3.535 991.43,-1.27 953.689,0C924.479,0.983 894.598,4.314 866.342,7.62C838.833,10.839 811.247,14.077 784.155,19.835C756.922,25.623 728.237,33.492 702.947,42.347C678.756,50.816 651.943,62.15 632.412,72.964C615.533,82.31 597.883,96.775 585.764,107.23C576.021,115.634 567,125.385 559.694,135.695C552.404,145.983 546.686,157.414 541.929,169.092C537.157,180.803 531.499,193.157 531.066,205.962C529.426,254.519 532.088,460.436 532.088,460.436ZM745.919,157.519C795.239,157.519 835.281,197.907 835.281,247.653C835.281,297.399 795.239,337.787 745.919,337.787C696.598,337.787 656.556,297.399 656.556,247.653C656.556,197.907 696.598,157.519 745.919,157.519Z" style="fill:white;"/>
    <g transform="matrix(-1,0.00040234,-0.00040234,-1,2048.4,2045.69)">
        <path d="M532.088,460.436L1029.71,460.573L1029.68,530.814C1029.68,530.814 440.923,531.883 305.028,530.935C274.445,530.722 242.374,541.02 215.657,551.696C189.934,561.974 165.675,576.868 144.724,594.989C122.309,614.376 98.203,640.614 81.165,668.023C62.23,698.483 43.527,739.667 31.115,777.751C18.703,815.835 11.882,860.234 6.696,896.529C2.018,929.268 0.027,962.446 0,995.518C-0.034,1037.22 4.056,1112.55 6.491,1146.74C7.783,1164.87 11.487,1182.76 14.615,1200.66C17.907,1219.5 20.421,1240.56 26.239,1259.79C34.487,1287.04 50.705,1335.53 64.102,1364.18C75.368,1388.27 90,1411.47 106.625,1431.69C123.25,1451.91 143.691,1471.31 163.853,1485.51C183.216,1499.14 204.99,1509.83 227.599,1516.87C250.275,1523.93 275.55,1526.78 299.904,1527.89C339.483,1529.69 465.074,1527.69 465.074,1527.69C465.074,1527.69 465.04,1396.3 465.007,1263.95C464.969,1115.12 585.371,994.327 734.198,993.881C928.805,993.509 1171.44,992.932 1254.32,992.263C1283.83,992.025 1314.5,985.299 1341.55,977.03C1367.87,968.983 1395.11,956.515 1416.61,942.647C1436.98,929.503 1455.61,912.938 1470.52,893.822C1485.94,874.055 1500.59,846.422 1509.14,824.045C1516.95,803.579 1519.27,778.213 1521.81,759.554C1523.94,743.856 1524.29,727.937 1524.35,712.094C1524.66,627.205 1525.43,335.687 1523.69,250.221C1523.35,232.943 1520.19,215.416 1513.95,199.301C1507.05,181.478 1496.07,159.709 1482.27,143.278C1466.42,124.398 1441.55,101.851 1418.86,86.021C1396.46,70.395 1371.57,58.216 1346.13,48.293C1319.31,37.834 1287.96,28.985 1257.94,23.263C1215.72,15.214 1143.5,3.877 1092.79,0C1046.56,-3.535 991.43,-1.27 953.689,0C924.479,0.983 894.598,4.314 866.342,7.62C838.833,10.839 811.247,14.077 784.155,19.835C756.922,25.623 728.237,33.492 702.947,42.347C678.756,50.816 651.943,62.15 632.412,72.964C615.533,82.31 597.883,96.775 585.764,107.23C576.021,115.634 567,125.385 559.694,135.695C552.404,145.983 546.686,157.414 541.929,169.092C537.157,180.803 531.499,193.157 531.066,205.962C529.426,254.519 532.088,460.436 532.088,460.436ZM745.919,157.519C795.239,157.519 835.281,197.907 835.281,247.653C835.281,297.399 795.239,337.787 745.919,337.787C696.598,337.787 656.556,297.399 656.556,247.653C656.556,197.907 696.598,157.519 745.919,157.519Z" style="fill:white;"/>
    </g>
</svg>
