<?xml version="1.0" encoding="UTF-8" standalone="no"?><!DOCTYPE svg PUBLIC "-//W3C//DTD SVG 1.1//EN" "http://www.w3.org/Graphics/SVG/1.1/DTD/svg11.dtd"><svg width="100%" height="100%" viewBox="0 0 5000 5000" version="1.1" xmlns="http://www.w3.org/2000/svg" xmlns:xlink="http://www.w3.org/1999/xlink" xml:space="preserve" xmlns:serif="http://www.serif.com/" style="fill-rule:evenodd;clip-rule:evenodd;stroke-linejoin:round;stroke-miterlimit:2;"><path d="M2500,0c1379.79,0 2500,1120.21 2500,2500c0,1379.79 -1120.21,2500 -2500,2500c-1379.79,0 -2500,-1120.21 -2500,-2500c0,-1379.79 1120.21,-2500 2500,-2500Zm0,112.514c-1318.11,0 -2388.24,1069.8 -2388.24,2387.49c0,1317.69 1070.13,2387.49 2388.24,2387.49c1318.11,-0 2388.24,-1069.8 2388.24,-2387.49c-0,-1317.69 -1070.13,-2387.49 -2388.24,-2387.49Zm-1793.32,1210.42c383.733,-582.639 1043.91,-967.53 1793.32,-967.53c556.76,-0 1064.27,212.443 1445.76,560.588c-67.6,-1.01 -111.351,8.82 -148.248,21.765c-68.243,29.114 -109.55,64.961 -142.248,102.961c-62.643,72.366 -88.796,145.623 -90.768,219.469c-9.33,155.994 33.777,262.898 94.052,353.731c71.329,113.444 140.186,231.212 202.038,361.24c49.91,112.665 81.883,242.519 87.399,397.726c-1.144,105.07 -16.918,208.189 -45.807,309.56l-329.949,1117.63l-774.786,-2304.9l190.748,-13.006c52.271,-4.725 93.433,-15.51 114.449,-37.283c14.01,-19.62 19.028,-42.598 20.726,-70.741c-7.084,-47.057 -43.129,-79.549 -74.482,-76.175c-41.478,2.441 -87.123,4.882 -145.662,7.323c-145.629,13.142 -289.117,16.656 -431.785,16.474c-125.012,3.967 -248.341,-1.327 -370.394,-13.637c-85.969,-8.061 -162.706,-9.483 -236.837,-8.666c-31.79,0.35 -59.375,38.159 -66.279,63.463c-8.22,30.126 -0.738,63.143 9.711,74.219c15.995,18.558 32.494,29.57 49.247,36.762c81.173,14.48 162.732,21.989 244.852,19.422l336.719,915.124l-471.611,1407.86l-780.09,-2320.66c122.37,-8.433 269.784,-13.97 294.64,-38.097c23.018,-22.343 40.974,-60.21 23.902,-110.284c-13.904,-40.783 -56.614,-51.076 -82.008,-50.63c-125.708,9.483 -245.035,16.231 -362.448,22.158c-118.053,4.658 -236.105,5.378 -354.158,4.14Zm857.291,3107.04c-715.685,-347.774 -1209.47,-1081.69 -1209.47,-1929.98c-0,-311.338 66.514,-607.271 186.102,-874.36l1023.37,2804.34Zm2825.81,-2945.58c163.11,302.375 255.703,648.265 255.703,1015.6c0,791.043 -429.39,1482.63 -1067.7,1854.38c55.496,-157.297 368.391,-1060.94 368.391,-1060.94l278.651,-805.855c62.668,-159.408 109.439,-311.591 140.315,-456.549c19.025,-111.733 29.295,-221.715 33.869,-330.558c1.281,-73.116 -2.22,-145.037 -9.231,-216.081Zm-1176.58,3038.66c-223.177,78.71 -463.231,121.537 -713.213,121.537c-210.464,0 -413.891,-30.357 -606.133,-86.926l643.283,-1873.16l654.338,1794.36c5.388,17.668 12.391,32.779 21.725,44.198Z" style="fill:#fff;"/></svg>